# xmcd
#
# Track frame offsets: 
#        150
#        24785
#        43124
#        68588
#        86762
#        109096
#        137681
#        155357
#        176962
#        192423
#        216424
#        238126
#
# Disc length: 3403 seconds
#
# Revision: 0
# Processed by: cddbd v1.5.2PL0 Copyright (c) Steve Scherf et al.
# Submitted via: ExactAudioCopy v1.0b3
#
DISCID=a80d490c
DTITLE=Khanh Ly - Dem Hanh Ngo
DYEAR=1989
DGENRE=
TTITLE0=Dem hanh ngo
TTITLE1=Dem Thanh vo cung
TTITLE2=Troi chua muon sang
TTITLE3=Giao duong im bong
TTITLE4=Bai Thanh ca buon
TTITLE5=Niem tin
TTITLE6=Cao cung len
TTITLE7=Loi yeu cuoi
TTITLE8=Gan song Babylon
TTITLE9=Du am mua Giang sinh
TTITLE10=Mua sao sang
TTITLE11=Len nui Sion
EXTD=
EXTT0=
EXTT1=
EXTT2=
EXTT3=
EXTT4=
EXTT5=
EXTT6=
EXTT7=
EXTT8=
EXTT9=
EXTT10=
EXTT11=
PLAYORDER=
